<?xml version="1.0" standalone="no"?>
<!DOCTYPE svg PUBLIC "-//W3C//DTD SVG 20010904//EN"
 "http://www.w3.org/TR/2001/REC-SVG-20010904/DTD/svg10.dtd">
<svg version="1.0" xmlns="http://www.w3.org/2000/svg"
 width="500.000000pt" height="500.000000pt" viewBox="0 0 500.000000 500.000000"
 preserveAspectRatio="xMidYMid meet">
<metadata>
Created by potrace 1.14, written by Peter Selinger 2001-2017
</metadata>
<g transform="translate(0.000000,500.000000) scale(0.100000,-0.100000)"
fill="#000000" stroke="none">
<path d="M975 3866 c-125 -29 -195 -74 -243 -155 -24 -40 -27 -56 -27 -131 0
-75 3 -91 30 -138 45 -83 172 -195 376 -332 225 -150 280 -193 342 -259 71
-76 100 -146 95 -227 -4 -60 -7 -67 -47 -108 -45 -46 -144 -98 -234 -122 -123
-34 -343 -27 -382 12 -55 55 27 191 205 338 82 68 100 103 61 113 -11 3 -22
11 -25 19 -15 40 -104 -13 -226 -136 -140 -141 -179 -243 -127 -335 18 -33 39
-48 111 -85 l88 -45 147 0 c121 1 159 4 226 23 162 47 288 141 314 235 18 64
9 151 -22 213 -63 124 -154 205 -466 417 -284 192 -351 266 -351 391 0 88 40
145 130 185 154 68 477 45 706 -50 97 -40 184 -118 184 -165 0 -40 -32 -88
-77 -119 -57 -37 -185 -81 -293 -99 -52 -9 -98 -20 -103 -25 -32 -32 51 -92
118 -84 160 19 344 91 413 162 94 97 78 195 -49 301 -107 89 -241 150 -419
191 -113 26 -370 35 -455 15z"/>
<path d="M2637 3824 c-61 -60 -94 -232 -83 -426 6 -95 30 -238 62 -373 6 -24
-65 -111 -141 -174 -89 -75 -270 -147 -348 -139 -28 3 -32 7 -40 45 -14 71
-89 128 -140 106 -17 -8 -25 -5 -38 11 -16 20 -18 20 -53 3 -40 -18 -90 -88
-106 -147 -27 -97 -2 -162 85 -214 49 -30 50 -32 38 -56 -9 -18 -13 -85 -13
-242 l0 -218 40 0 40 0 0 220 0 220 1025 0 1025 0 0 -240 0 -240 40 0 40 0 0
235 c0 254 -2 266 -55 315 l-27 25 -959 3 c-527 1 -959 4 -959 7 0 2 4 15 10
29 8 22 16 26 50 26 80 0 194 31 296 80 79 38 119 65 181 124 l80 75 14 -25
c22 -41 110 -116 175 -149 152 -76 331 -13 527 186 l87 90 30 -34 c64 -73 226
-115 337 -88 105 27 230 108 333 217 58 61 139 164 158 199 12 23 -1 55 -22
55 -8 0 -16 7 -20 15 -3 8 -16 15 -29 15 -18 0 -35 -15 -68 -62 -59 -86 -201
-227 -272 -273 -106 -67 -217 -91 -295 -64 -43 15 -56 60 -48 156 7 72 6 73
-19 83 -14 5 -25 14 -25 19 0 13 -27 22 -45 15 -8 -4 -18 -18 -22 -33 -15 -61
-211 -278 -315 -349 -108 -74 -227 -97 -295 -57 -39 23 -103 119 -103 156 0
15 11 74 24 131 44 185 68 358 70 483 1 158 -10 193 -75 245 -63 50 -112 54
-152 14z m108 -149 c11 -104 -20 -471 -44 -513 -12 -22 -31 124 -31 236 0 146
34 342 59 342 5 0 13 -29 16 -65z m-801 -1010 c32 -21 32 -32 4 -62 -23 -24
-72 -31 -84 -11 -12 19 -5 87 12 120 l16 32 13 -31 c8 -18 25 -39 39 -48z"/>
<path d="M3452 3370 c-45 -52 -50 -90 -13 -90 10 0 24 -7 31 -15 7 -8 21 -15
30 -15 21 0 90 76 90 99 0 18 -62 71 -82 71 -7 0 -32 -23 -56 -50z"/>
<path d="M639 1971 l-24 -19 0 -511 0 -511 -101 0 c-74 0 -105 -4 -113 -14
-21 -25 -1 -41 77 -59 72 -17 142 -18 1027 -15 822 4 957 6 999 19 53 17 65
31 46 54 -9 11 -37 15 -111 15 l-99 0 0 505 0 506 -25 24 -24 25 -814 0 c-787
0 -816 -1 -838 -19z m1611 -516 l0 -455 -780 0 -780 0 0 455 0 455 780 0 780
0 0 -455z"/>
<path d="M3966 1934 c-14 -14 -16 -77 -16 -543 0 -396 3 -530 12 -539 9 -9
112 -12 404 -12 348 0 393 2 398 16 3 9 6 254 6 544 0 513 -1 530 -19 540 -13
6 -155 10 -395 10 -327 0 -377 -2 -390 -16z m764 -544 l0 -450 -370 0 -370 0
0 450 0 450 370 0 370 0 0 -450z m-320 -505 c0 -11 -12 -15 -50 -15 -46 0 -60
7 -43 23 3 4 26 7 50 7 32 0 43 -4 43 -15z"/>
<path d="M3432 1668 c-17 -17 -17 -799 0 -816 9 -9 73 -12 225 -12 l213 0 10
26 c6 15 10 180 10 397 0 321 -2 376 -16 395 -15 22 -20 22 -223 22 -148 0
-210 -3 -219 -12z m428 -403 l0 -335 -205 0 -205 0 0 335 0 335 205 0 205 0 0
-335z m-170 -385 c0 -5 -15 -10 -34 -10 -19 0 -38 5 -41 10 -4 6 10 10 34 10
23 0 41 -4 41 -10z"/>
<path d="M2350 1220 l0 -140 195 0 195 0 0 -22 c0 -51 -87 -198 -116 -198 -8
0 -14 -4 -14 -10 0 -6 125 -10 355 -10 316 0 401 6 336 23 -26 7 -86 101 -105
164 l-15 52 112 3 112 3 3 95 c2 52 0 114 -3 138 l-6 42 -525 0 -524 0 0 -140z"/>
<path d="M3900 1220 c0 -129 1 -141 18 -138 15 3 17 18 17 138 0 120 -2 135
-17 138 -17 3 -18 -9 -18 -138z"/>
</g>
</svg>
